<svg width="377" height="520" viewBox="0 0 377 520" fill="none" xmlns="http://www.w3.org/2000/svg">
<path d="M100.888 192.187C100.402 191.385 99.9434 190.57 99.5734 189.706C96.1924 181.797 99.2083 170.781 102.207 163.234C102.211 164.607 102.197 165.962 102.142 167.334C102.092 168.584 102.059 167.729 102.492 169.001C103.651 172.405 104.286 183.082 102.199 186.157C101.778 186.777 101.058 187.424 100.527 187.965C100.665 189.354 100.9 190.793 100.888 192.187Z" fill="#0284c7"/>
<path d="M334.498 216.91C336.821 218.761 337.289 223.779 338.697 226.475C340.549 230.023 347.052 231.089 350.659 232.146C347.573 233.279 344.501 234.45 341.443 235.659C339.681 237.893 335.997 246.654 334.428 247.316C333.343 243.785 332.099 240.338 330.808 236.878C326.321 234.865 321.412 233.534 316.735 232.006C320.201 231.209 324.542 230.645 327.731 229.059C332.368 226.754 333.174 221.435 334.498 216.91Z" fill="#0284c7"/>
<path d="M348.823 239.078C352.454 242.943 353.775 254.124 355.005 259.362C361.963 261.839 369.122 263.889 376.135 266.234C369.092 268.424 361.924 270.254 354.8 272.161C353.338 277.332 352.095 288.585 348.818 292.437C346.364 285.89 344.857 278.68 343.032 271.913C335.455 270.111 327.82 268.465 320.442 265.947C327.711 262.897 335.628 261.106 343.23 259.043C344.82 252.206 346.384 245.673 348.823 239.078Z" fill="#0284c7"/>
<path d="M44.8585 128.245C45.0215 128.226 45.1845 128.213 45.3465 128.187C49.0185 127.583 52.7245 122.753 55.2695 120.137L54.3545 120.23L56.2795 120.556L55.8655 123.481C56.8705 124.644 57.8975 125.636 59.0445 126.66C59.9755 129.364 59.9675 131.347 58.6475 133.943C55.2615 140.603 41.3875 148.145 41.3505 154.817C33.3785 162.972 23.8155 170.81 16.8115 179.712C16.9205 181.909 17.7875 182.878 19.4765 184.337C29.7185 193.18 44.2075 197.546 54.8345 205.897C56.4895 208.407 57.4285 209.71 57.3525 212.796C57.2845 215.534 57.9905 219.173 56.5405 221.582C50.3395 221.598 44.4305 214.626 37.7375 214.703C30.3665 211.502 11.0835 200.042 5.8705 194.645C2.1625 190.806 -0.194496 185.742 0.0215039 180.335C0.169504 176.645 1.47852 173.161 3.53652 170.116C7.97052 163.554 14.6025 158.252 20.1975 152.705C28.4195 144.554 36.2695 136.022 44.8585 128.245Z" fill="#0284c7"/>
<path d="M306.571 365.832C314.752 370.518 343.301 399.418 349.586 407.574C351.608 410.199 353.37 413.165 354.314 416.358C356.238 422.869 354.212 429.443 350.88 435.083C340.934 451.917 322.3 467.178 306.746 478.671C305.854 478.529 305.208 478.62 304.339 478.817C303.026 479.114 303.129 479.001 301.952 478.569C303.328 475.386 302.44 473.137 301.921 469.751C301.136 468.959 300.458 468.312 299.892 467.34C299.366 466.437 299.807 465.989 300.091 465.044C301.966 463.536 303.619 462.298 304.721 460.085C304.793 459.939 304.858 459.79 304.927 459.642C306.635 456.771 311.607 453.526 314.211 451.217C321.034 445.166 336.82 430.31 338.947 421.749C336.345 414.937 306.349 386.846 299.462 380.549L299.026 379.53C301.399 375.698 302.566 367.982 306.571 365.832Z" fill="#0284c7"/>
<path d="M102.207 163.237C105.75 146.699 121.874 129.762 135.578 120.79C136.164 120.409 136.755 120.036 137.349 119.671C137.945 119.305 138.544 118.946 139.148 118.596C139.752 118.245 140.361 117.902 140.973 117.566C141.586 117.23 142.203 116.903 142.823 116.583C143.444 116.263 144.069 115.95 144.697 115.646C145.326 115.341 145.958 115.044 146.594 114.756C147.23 114.467 147.87 114.186 148.512 113.914C149.156 113.641 149.802 113.376 150.451 113.12C151.101 112.863 151.754 112.615 152.41 112.375C153.066 112.135 153.724 111.903 154.386 111.679C155.048 111.455 155.712 111.239 156.379 111.033C157.047 110.825 157.716 110.626 158.388 110.436C159.06 110.246 159.734 110.064 160.41 109.89C161.087 109.716 161.766 109.551 162.446 109.395C163.127 109.238 163.81 109.09 164.494 108.951C165.178 108.811 165.864 108.68 166.552 108.558C167.24 108.436 167.929 108.322 168.619 108.217C169.31 108.111 170.002 108.015 170.694 107.928C171.387 107.84 172.081 107.76 172.776 107.69C173.471 107.619 174.167 107.557 174.863 107.505C175.559 107.451 176.256 107.407 176.954 107.371C177.652 107.335 178.349 107.309 179.047 107.291C179.746 107.272 180.444 107.262 181.142 107.262C181.841 107.261 182.539 107.269 183.237 107.286C183.936 107.302 184.634 107.328 185.331 107.362C186.029 107.396 186.726 107.439 187.422 107.491C188.119 107.542 188.815 107.602 189.51 107.672C190.205 107.74 190.899 107.818 191.592 107.904C192.285 107.99 192.977 108.085 193.668 108.189C194.359 108.293 195.048 108.405 195.736 108.526C196.424 108.646 197.11 108.776 197.794 108.914C198.479 109.052 199.162 109.198 199.843 109.354C200.511 109.506 201.177 109.667 201.841 109.835C202.505 110.003 203.167 110.18 203.827 110.365C204.487 110.549 205.145 110.742 205.799 110.944C206.455 111.144 207.107 111.353 207.757 111.57C208.407 111.786 209.055 112.011 209.699 112.243C210.343 112.475 210.985 112.716 211.623 112.964C212.262 113.212 212.898 113.467 213.53 113.731C214.163 113.994 214.792 114.265 215.418 114.545C216.044 114.823 216.667 115.11 217.285 115.404C217.904 115.698 218.519 115.999 219.131 116.308C219.743 116.617 220.35 116.934 220.954 117.258C221.558 117.581 222.157 117.912 222.753 118.251C223.349 118.589 223.941 118.935 224.528 119.288C225.116 119.64 225.699 120 226.277 120.368C226.856 120.734 227.43 121.108 227.999 121.49C228.569 121.87 229.133 122.258 229.693 122.653C230.253 123.047 230.809 123.449 231.359 123.858C231.909 124.266 232.454 124.681 232.994 125.103C233.535 125.524 234.07 125.952 234.599 126.387C235.129 126.821 235.654 127.262 236.172 127.71C236.692 128.157 237.205 128.611 237.713 129.071C238.221 129.531 238.723 129.997 239.219 130.469C239.716 130.941 240.207 131.419 240.692 131.903C241.177 132.387 241.656 132.877 242.129 133.373C242.602 133.869 243.069 134.37 243.529 134.877C243.991 135.384 244.445 135.897 244.893 136.415C245.342 136.933 245.784 137.457 246.219 137.986C246.655 138.514 247.084 139.049 247.506 139.589C247.929 140.128 248.345 140.672 248.754 141.222C249.164 141.771 249.566 142.325 249.962 142.885C250.358 143.445 250.747 144.009 251.129 144.578C251.511 145.146 251.886 145.72 252.254 146.298C258.521 156.173 267.035 174.369 264.129 186.381C262.992 191.08 259.749 195.355 255.549 197.753C250.998 200.352 245.78 200.165 240.91 198.638C233.972 196.461 227.602 192.609 220.74 190.186C196.227 181.532 169.469 181.961 144.717 189.29C135.355 192.061 125.886 198.602 116.383 199.842C110.407 200.621 103.821 197.536 100.888 192.19C100.9 190.796 100.665 189.357 100.527 187.968C101.058 187.427 101.778 186.78 102.199 186.16C104.286 183.085 103.651 172.408 102.492 169.004C102.059 167.732 102.092 168.587 102.142 167.337C102.197 165.965 102.211 164.61 102.207 163.237ZM178.314 123.767C159.068 125.218 142.6 132.739 129.848 147.459C121.161 157.488 115.136 170.461 114.442 183.806C139.537 172.62 159.358 166.682 187.166 167.179C209.781 168.915 227.811 174.453 248.46 183.73C248.32 182.58 248.15 181.435 247.952 180.295C247.755 179.154 247.529 178.019 247.275 176.889C247.021 175.759 246.739 174.637 246.429 173.521C246.119 172.405 245.782 171.298 245.417 170.199C245.053 169.1 244.661 168.011 244.242 166.932C243.824 165.852 243.378 164.784 242.906 163.727C242.434 162.669 241.937 161.624 241.413 160.592C240.889 159.559 240.34 158.54 239.766 157.535C239.192 156.529 238.593 155.538 237.969 154.563C237.346 153.587 236.699 152.627 236.028 151.684C235.357 150.74 234.663 149.814 233.946 148.905C233.229 147.996 232.49 147.105 231.729 146.233C230.968 145.361 230.186 144.508 229.382 143.674C228.578 142.84 227.755 142.027 226.911 141.235C226.067 140.442 225.204 139.671 224.322 138.921C223.44 138.171 222.539 137.444 221.621 136.739C209.999 127.843 193.042 122.072 178.314 123.767Z" fill="#0284c7"/>
<path d="M306.747 478.673C264.358 510.181 210.767 523.054 158.58 518.103C156.874 517.93 155.17 517.735 153.468 517.52C151.767 517.305 150.068 517.07 148.372 516.813C146.676 516.557 144.984 516.28 143.294 515.983C141.605 515.686 139.92 515.368 138.238 515.029C136.557 514.69 134.88 514.331 133.207 513.952C131.535 513.573 129.867 513.174 128.203 512.754C126.541 512.334 124.883 511.894 123.23 511.434C121.578 510.974 119.932 510.494 118.291 509.994C116.651 509.494 115.016 508.974 113.388 508.434C111.76 507.894 110.139 507.334 108.525 506.755C106.911 506.176 105.303 505.577 103.703 504.958C102.104 504.34 100.512 503.702 98.9273 503.045C97.3433 502.388 95.7672 501.711 94.1992 501.016C92.6312 500.321 91.0719 499.606 89.5213 498.873C87.9706 498.14 86.4292 497.388 84.8972 496.617C83.3652 495.846 81.8426 495.056 80.3292 494.248C78.8166 493.441 77.3135 492.615 75.8202 491.77C74.3275 490.925 72.8452 490.063 71.3732 489.183C69.9012 488.302 68.4399 487.404 66.9892 486.488C65.5392 485.572 64.1006 484.638 62.6732 483.687C61.2459 482.736 59.8302 481.768 58.4262 480.783C57.0222 479.797 55.6306 478.794 54.2512 477.775C52.8712 476.756 51.5042 475.72 50.1502 474.668C48.7956 473.615 47.4542 472.546 46.1262 471.461C44.7976 470.376 43.4826 469.275 42.1812 468.158C40.8792 467.041 39.5912 465.908 38.3172 464.759C37.0432 463.611 35.7833 462.447 34.5373 461.268C33.2919 460.089 32.0609 458.895 30.8443 457.686C29.6269 456.477 28.4249 455.253 27.2382 454.015C26.0509 452.776 24.8792 451.524 23.7232 450.257C22.5666 448.99 21.4256 447.71 20.3003 446.415C19.1743 445.12 18.0645 443.812 16.9712 442.491C12.0782 436.488 8.05723 429.591 9.14223 421.513C9.66923 417.591 11.9323 413.699 14.2533 410.55C20.2013 402.482 46.6332 375.977 54.4372 370.424C59.7962 366.611 67.5683 365.849 73.2923 369.362C79.3543 373.083 84.1932 381.832 88.7782 387.304C106.448 408.392 132.881 422.874 159.868 427.519C202.168 434.8 242.703 419.643 272.115 389.126C278.556 382.444 282.914 372.291 290.653 367.185C295.597 363.923 301.132 364.675 306.572 365.834C302.567 367.984 301.4 375.7 299.027 379.532L299.463 380.551C278.496 412.572 246.724 435.025 209.126 442.859C174.121 450.152 135.985 443.782 105.994 424.059C89.3672 413.124 75.8383 399.133 64.4773 382.862C58.7203 388.718 26.0452 419.188 26.0622 424.319C26.0842 431.316 46.4652 449.543 51.9862 454.34C90.5232 487.819 142.379 506.404 193.555 502.636C225.366 500.295 255.959 491.257 283.204 474.55C290.717 469.942 297.531 464.36 304.928 459.644C304.859 459.792 304.794 459.941 304.722 460.087C303.62 462.3 301.967 463.538 300.092 465.046C299.808 465.991 299.367 466.439 299.893 467.342C300.459 468.314 301.137 468.961 301.922 469.753C302.441 473.139 303.329 475.388 301.953 478.571C303.13 479.003 303.027 479.116 304.34 478.819C305.209 478.622 305.855 478.531 306.747 478.673Z" fill="#0284c7"/>
<path d="M44.8585 128.244C71.3825 99.8786 99.8725 72.9976 127.385 45.5646L153.179 19.6026C158.3 14.4256 163.497 8.47362 169.32 4.10562C172.563 1.67362 176.158 0.272621 180.219 0.0306212C187.698 -0.414379 193.713 4.06062 198.894 8.90762C210.121 19.4106 220.58 30.9296 231.463 41.8056L300.2 110.329C310.724 120.987 321.315 131.579 331.975 142.104C340.249 150.188 349.244 158.016 356.593 166.959C359.828 170.895 362.141 174.72 362.429 179.982C362.732 185.523 360.441 190.58 356.657 194.543C350.517 200.974 315.69 221.476 306.68 225.369C303.418 226.779 299.887 227.798 296.309 227.769C291.964 227.733 287.999 226.122 285.055 222.894C269.049 205.342 287.976 150.259 235.203 113.926C233.462 112.732 231.684 111.597 229.87 110.519C228.055 109.441 226.207 108.423 224.327 107.466C222.446 106.508 220.536 105.612 218.597 104.779C216.658 103.945 214.694 103.176 212.705 102.471C210.716 101.765 208.706 101.124 206.676 100.55C204.645 99.9743 202.598 99.4659 200.534 99.0246C198.47 98.5826 196.394 98.2083 194.306 97.9016C192.218 97.595 190.122 97.3566 188.019 97.1866C187.246 97.1306 186.472 97.0839 185.698 97.0466C184.924 97.0093 184.149 96.9813 183.375 96.9626C182.6 96.9446 181.825 96.936 181.05 96.9366C180.274 96.9373 179.499 96.9473 178.725 96.9666C177.95 96.9866 177.176 97.0159 176.402 97.0546C175.628 97.0933 174.854 97.1413 174.081 97.1986C173.308 97.2566 172.536 97.324 171.765 97.4006C170.993 97.4773 170.223 97.5633 169.455 97.6586C168.685 97.7539 167.917 97.859 167.151 97.9736C166.384 98.0876 165.619 98.2113 164.856 98.3446C164.092 98.4773 163.33 98.6196 162.57 98.7716C161.81 98.9236 161.052 99.0846 160.296 99.2546C159.54 99.4253 158.786 99.605 158.035 99.7936C157.283 99.983 156.533 100.181 155.787 100.389C155.039 100.596 154.295 100.812 153.554 101.038C152.812 101.263 152.074 101.498 151.338 101.742C150.602 101.985 149.87 102.238 149.14 102.5C148.41 102.761 147.684 103.031 146.962 103.311C146.238 103.591 145.519 103.879 144.803 104.176C144.087 104.473 143.375 104.779 142.667 105.094C141.958 105.408 141.254 105.731 140.554 106.063C139.853 106.395 139.157 106.735 138.465 107.085C137.773 107.433 137.085 107.791 136.402 108.157C135.718 108.523 135.04 108.897 134.366 109.279C133.691 109.661 133.022 110.052 132.358 110.451C131.693 110.85 131.033 111.257 130.379 111.672C129.724 112.087 129.075 112.51 128.431 112.941C127.786 113.372 127.147 113.811 126.514 114.258C125.88 114.704 125.253 115.159 124.631 115.621C124.008 116.083 123.391 116.552 122.781 117.03C122.17 117.507 121.565 117.992 120.966 118.484C120.367 118.976 119.774 119.475 119.188 119.982C118.351 120.72 117.527 121.472 116.717 122.24C115.906 123.007 115.109 123.788 114.327 124.583C113.543 125.378 112.774 126.187 112.02 127.009C111.264 127.831 110.524 128.666 109.799 129.514C109.073 130.362 108.363 131.222 107.668 132.096C106.972 132.968 106.292 133.853 105.628 134.75C104.963 135.646 104.315 136.554 103.683 137.474C103.05 138.394 102.434 139.324 101.834 140.265C101.234 141.206 100.65 142.157 100.084 143.119C99.5169 144.081 98.9672 145.052 98.4346 146.033C97.9026 147.013 97.3875 148.003 96.8895 149.002C96.3915 150.001 95.9112 151.008 95.4485 152.024C94.9859 153.04 94.5412 154.063 94.1146 155.095C93.6879 156.126 93.2795 157.164 92.8895 158.21C92.4989 159.255 92.1269 160.307 91.7736 161.366C91.4202 162.424 91.0855 163.489 90.7695 164.56C86.4505 179.107 86.2746 209.34 80.0336 219.903C79.8469 220.222 79.6492 220.534 79.4406 220.84C79.2326 221.146 79.0142 221.444 78.7855 221.735C78.5569 222.026 78.3186 222.309 78.0706 222.583C77.8232 222.857 77.5665 223.123 77.3005 223.381C77.0345 223.637 76.7599 223.885 76.4766 224.124C76.1939 224.362 75.9032 224.59 75.6046 224.809C75.3059 225.027 75.0002 225.235 74.6876 225.433C74.3749 225.63 74.0559 225.817 73.7305 225.993C73.4052 226.168 73.0742 226.332 72.7375 226.486C72.4009 226.639 72.0592 226.781 71.7125 226.911C71.3665 227.04 71.0162 227.158 70.6616 227.264C70.3076 227.37 69.9502 227.464 69.5895 227.546C69.2282 227.627 68.8649 227.696 68.4996 227.753C68.1342 227.809 67.7672 227.853 67.3986 227.885C67.0299 227.917 66.6609 227.936 66.2916 227.943C65.9216 227.949 65.5519 227.942 65.1826 227.924C55.4426 227.478 45.6545 219.756 37.7375 214.702C44.4305 214.625 50.3395 221.597 56.5405 221.581C57.9905 219.172 57.2845 215.533 57.3525 212.795C57.4285 209.709 56.4895 208.406 54.8345 205.896C44.2075 197.545 29.7186 193.179 19.4766 184.336C17.7876 182.877 16.9205 181.908 16.8115 179.711C23.8155 170.809 33.3785 162.971 41.3505 154.816C41.3875 148.144 55.2615 140.602 58.6475 133.942C59.9675 131.346 59.9756 129.363 59.0446 126.659C57.8976 125.635 56.8705 124.643 55.8655 123.48L56.2795 120.555L54.3546 120.229L55.2695 120.136C52.7245 122.752 49.0186 127.582 45.3466 128.186C45.1846 128.212 45.0215 128.225 44.8585 128.244ZM41.3505 154.816C33.3785 162.971 23.8155 170.809 16.8115 179.711C16.9205 181.908 17.7876 182.877 19.4766 184.336C29.7186 193.179 44.2075 197.545 54.8345 205.896C58.6105 207.816 62.2606 210.127 65.9326 212.247C72.9226 181.148 69.4375 158.341 89.1005 129.424C89.6245 128.654 90.1579 127.891 90.7006 127.135C91.2439 126.378 91.7962 125.628 92.3575 124.886C92.9189 124.142 93.4892 123.406 94.0685 122.678C94.6479 121.949 95.2359 121.227 95.8325 120.513C96.4299 119.798 97.0359 119.091 97.6506 118.392C98.2652 117.692 98.8882 117.001 99.5195 116.317C100.152 115.632 100.792 114.956 101.44 114.288C102.088 113.619 102.744 112.959 103.409 112.307C104.073 111.654 104.746 111.01 105.426 110.375C106.106 109.739 106.794 109.111 107.49 108.493C108.186 107.874 108.889 107.264 109.6 106.663C110.31 106.061 111.028 105.469 111.754 104.885C112.479 104.301 113.212 103.727 113.952 103.161C114.691 102.595 115.437 102.038 116.191 101.491C116.943 100.943 117.703 100.405 118.47 99.8766C119.236 99.348 120.009 98.829 120.789 98.3196C121.567 97.8103 122.353 97.3103 123.145 96.8196C123.936 96.3296 124.733 95.8493 125.537 95.3786C126.34 94.9079 127.149 94.4473 127.964 93.9966C128.778 93.546 129.598 93.1053 130.424 92.6746C131.25 92.2439 132.08 91.8236 132.916 91.4136C133.752 91.0036 134.593 90.6039 135.439 90.2146C136.284 89.8246 137.134 89.4456 137.99 89.0776C138.844 88.709 139.704 88.3509 140.568 88.0036C141.432 87.6563 142.3 87.3196 143.172 86.9936C144.044 86.6676 144.92 86.3526 145.8 86.0486C146.68 85.744 147.563 85.4503 148.45 85.1676C149.337 84.8856 150.228 84.6139 151.122 84.3526C152.015 84.0919 152.912 83.8426 153.812 83.6046C154.712 83.366 155.614 83.1383 156.52 82.9216C157.426 82.7049 158.334 82.4996 159.245 82.3056C160.155 82.1116 161.067 81.9289 161.983 81.7576C190.499 76.4516 220.686 83.6356 244.382 100.142C270.048 118.02 286.172 146.149 291.601 176.617C293.715 188.481 294.286 200.528 296.468 212.393C306.016 206.619 315.63 200.957 325.31 195.406C331.009 192.104 337.321 188.954 342.562 184.974C344.505 183.499 345.282 182.98 345.583 180.546C344.614 178.713 343.369 177.215 342.013 175.658C335.475 168.146 327.654 161.368 320.532 154.391C310.01 144.082 299.767 133.461 289.412 122.983L229.432 63.2306C215.3 49.0666 201.444 34.2896 186.793 20.6686C185.042 19.0406 182.876 16.9166 180.451 16.7376C174.847 20.7476 169.855 26.4006 164.95 31.2636L136.957 59.3586C105.257 91.2586 73.6435 123.529 41.3505 154.816Z" fill="#0284c7"/>
<path d="M177.587 193.874C178.469 193.83 179.352 193.797 180.235 193.774C181.118 193.752 182.001 193.74 182.884 193.738C183.768 193.738 184.651 193.748 185.534 193.768C186.418 193.789 187.3 193.82 188.182 193.862C189.065 193.904 189.947 193.957 190.827 194.021C191.709 194.085 192.589 194.16 193.468 194.245C194.347 194.331 195.225 194.427 196.102 194.533C196.979 194.64 197.854 194.758 198.728 194.886C199.602 195.014 200.475 195.153 201.345 195.302C202.216 195.452 203.085 195.613 203.951 195.783C204.818 195.954 205.682 196.135 206.544 196.327C207.406 196.519 208.266 196.722 209.123 196.935C209.981 197.149 210.835 197.372 211.687 197.606C212.538 197.84 213.387 198.084 214.233 198.339C215.079 198.594 215.922 198.859 216.761 199.134C217.601 199.41 218.436 199.695 219.268 199.99C220.101 200.286 220.93 200.592 221.754 200.908C222.579 201.225 223.4 201.551 224.217 201.887C225.034 202.223 225.847 202.569 226.655 202.925C227.463 203.281 228.267 203.647 229.066 204.023C229.866 204.399 230.661 204.785 231.451 205.179C232.241 205.575 233.026 205.98 233.806 206.394C234.586 206.808 235.361 207.232 236.131 207.665C236.901 208.099 237.665 208.542 238.424 208.994C239.183 209.446 239.936 209.907 240.684 210.377C241.432 210.848 242.173 211.328 242.909 211.816C243.645 212.305 244.375 212.803 245.099 213.309C245.823 213.816 246.54 214.331 247.251 214.855C247.963 215.379 248.667 215.912 249.365 216.453C250.063 216.995 250.755 217.545 251.439 218.103C252.124 218.661 252.802 219.228 253.472 219.802C254.143 220.377 254.806 220.96 255.463 221.551C277.473 241.266 292.522 269.988 294.017 299.701C294.067 300.631 294.106 301.562 294.133 302.492C294.161 303.424 294.176 304.355 294.18 305.286C294.185 306.218 294.178 307.149 294.158 308.08C294.14 309.012 294.109 309.942 294.067 310.872C294.025 311.803 293.971 312.733 293.906 313.662C293.841 314.591 293.764 315.519 293.676 316.446C293.588 317.374 293.488 318.3 293.377 319.224C293.266 320.149 293.143 321.072 293.009 321.994C292.875 322.916 292.73 323.835 292.572 324.753C292.416 325.671 292.248 326.587 292.068 327.501C291.888 328.415 291.697 329.327 291.495 330.236C291.293 331.146 291.079 332.052 290.854 332.955C290.629 333.859 290.394 334.76 290.146 335.658C289.9 336.556 289.641 337.451 289.372 338.342C289.103 339.234 288.822 340.123 288.531 341.007C288.24 341.892 287.938 342.773 287.624 343.649C287.311 344.527 286.987 345.4 286.652 346.269C286.317 347.138 285.971 348.003 285.615 348.863C285.259 349.724 284.892 350.58 284.514 351.431C284.136 352.283 283.748 353.129 283.35 353.971C282.952 354.813 282.543 355.649 282.123 356.481C281.703 357.313 281.274 358.139 280.834 358.959C280.394 359.781 279.944 360.596 279.484 361.405C279.024 362.215 278.554 363.019 278.073 363.817C277.593 364.615 277.103 365.407 276.604 366.193C276.104 366.979 275.595 367.759 275.076 368.532C274.557 369.306 274.028 370.072 273.49 370.832C272.952 371.592 272.405 372.346 271.847 373.092C271.291 373.839 270.725 374.579 270.149 375.311C269.575 376.043 268.991 376.768 268.397 377.486C267.804 378.204 267.202 378.915 266.591 379.618C265.98 380.321 265.361 381.016 264.733 381.704C245.132 403.31 216.988 417.4 187.748 418.833C157.618 419.657 130.467 412.004 107.366 391.931C106.666 391.323 105.974 390.705 105.288 390.079C104.604 389.454 103.927 388.82 103.257 388.177C102.588 387.535 101.926 386.884 101.273 386.224C100.62 385.566 99.9759 384.899 99.3392 384.223C98.7025 383.549 98.0745 382.866 97.4552 382.175C96.8352 381.485 96.2242 380.787 95.6222 380.081C95.0195 379.375 94.4258 378.662 93.8412 377.941C93.2565 377.221 92.6812 376.494 92.1152 375.759C91.5485 375.025 90.9908 374.283 90.4422 373.534C89.8942 372.786 89.3555 372.03 88.8262 371.268C88.2969 370.506 87.7769 369.738 87.2662 368.963C86.7562 368.189 86.2555 367.408 85.7642 366.62C85.2735 365.833 84.7925 365.04 84.3212 364.24C83.8499 363.441 83.3882 362.636 82.9362 361.825C82.4848 361.015 82.0439 360.199 81.6132 359.377C81.1819 358.556 80.7609 357.729 80.3502 356.897C79.9395 356.065 79.5392 355.228 79.1492 354.386C78.7592 353.544 78.3799 352.698 78.0112 351.846C77.6425 350.995 77.2842 350.139 76.9362 349.278C76.5888 348.418 76.2519 347.554 75.9252 346.685C75.5992 345.817 75.2838 344.944 74.9792 344.067C74.6745 343.191 74.3808 342.311 74.0982 341.427C73.8155 340.544 73.5435 339.657 73.2822 338.766C73.0215 337.876 72.7718 336.982 72.5332 336.085C72.2952 335.189 72.0678 334.289 71.8512 333.387C71.6352 332.485 71.4302 331.58 71.2362 330.672C71.0422 329.765 70.8595 328.855 70.6882 327.943C70.5169 327.031 70.3568 326.118 70.2082 325.202C70.0595 324.286 69.9222 323.369 69.7962 322.449C69.6702 321.53 69.5558 320.609 69.4532 319.687C69.3498 318.765 69.2582 317.841 69.1782 316.917C69.0982 315.993 69.0295 315.067 68.9722 314.141C66.8682 283.683 76.4202 255.174 96.5102 232.21C117.827 207.845 145.702 196.034 177.587 193.874ZM173.224 210.999C145.584 214.052 122.617 225.926 105.111 247.877C104.639 248.476 104.173 249.08 103.716 249.69C103.258 250.3 102.808 250.916 102.365 251.536C101.923 252.158 101.488 252.784 101.061 253.416C100.634 254.048 100.214 254.684 99.8022 255.326C99.3909 255.968 98.9875 256.615 98.5922 257.267C98.1962 257.919 97.8085 258.576 97.4292 259.238C97.0498 259.9 96.6785 260.566 96.3152 261.236C95.9525 261.907 95.5979 262.582 95.2512 263.261C94.9045 263.941 94.5665 264.624 94.2372 265.311C93.9072 265.999 93.5858 266.691 93.2732 267.386C92.9605 268.082 92.6565 268.782 92.3612 269.484C92.0652 270.188 91.7782 270.894 91.5002 271.604C91.2222 272.314 90.9528 273.028 90.6922 273.744C90.4315 274.461 90.1798 275.181 89.9372 275.904C89.6945 276.627 89.4605 277.353 89.2352 278.081C89.0099 278.81 88.7938 279.541 88.5872 280.275C88.3798 281.009 88.1819 281.746 87.9932 282.485C87.8039 283.224 87.6238 283.965 87.4531 284.708C87.2825 285.452 87.1208 286.197 86.9682 286.944C86.8162 287.692 86.6732 288.441 86.5392 289.191C86.4052 289.942 86.2802 290.694 86.1642 291.448C86.0489 292.202 85.9428 292.957 85.8462 293.713C85.7488 294.47 85.6612 295.228 85.5832 295.986C85.5045 296.745 85.4355 297.504 85.3762 298.264C85.3162 299.025 85.2659 299.786 85.2252 300.547C85.1839 301.309 85.1522 302.071 85.1302 302.833C85.1075 303.595 85.0945 304.358 85.0912 305.12C85.0878 305.883 85.0938 306.646 85.1092 307.408C85.1245 308.171 85.1492 308.933 85.1832 309.695C85.2172 310.457 85.2605 311.219 85.3132 311.979C85.3659 312.74 85.4278 313.5 85.4992 314.259C85.5705 315.019 85.6512 315.777 85.7412 316.534C88.7662 342.731 101.449 365.724 122.226 381.988C141.906 397.394 165.511 403.904 190.343 402.268C217.311 398.29 241.695 386.286 258.14 363.926C273.29 343.326 280.108 318.519 276.205 293.167C272.335 268.036 258.981 244.363 238.345 229.293C219.193 215.306 196.805 209.25 173.224 210.999Z" fill="#0284c7"/>
<defs>
<linearGradient id="paint0_linear_120_756" x1="325.028" y1="265.4" x2="371.493" y2="265.431" gradientUnits="userSpaceOnUse">
<stop stop-color="#DFC322"/>
<stop offset="1" stop-color="#E9E039"/>
</linearGradient>
<linearGradient id="paint1_linear_120_756" x1="100.102" y1="152.8" x2="262.352" y2="154.008" gradientUnits="userSpaceOnUse">
<stop stop-color="#3C4D9F"/>
<stop offset="1" stop-color="#7097F6"/>
</linearGradient>
<linearGradient id="paint2_linear_120_756" x1="10.5852" y1="443.092" x2="304.752" y2="441.289" gradientUnits="userSpaceOnUse">
<stop stop-color="#3C4D9F"/>
<stop offset="1" stop-color="#7199F8"/>
</linearGradient>
<linearGradient id="paint3_linear_120_756" x1="47.6596" y1="113.498" x2="360.765" y2="113.471" gradientUnits="userSpaceOnUse">
<stop stop-color="#3D4FA2"/>
<stop offset="1" stop-color="#7198F7"/>
</linearGradient>
<linearGradient id="paint4_linear_120_756" x1="69.781" y1="305.619" x2="292.187" y2="306.717" gradientUnits="userSpaceOnUse">
<stop stop-color="#3A4B9D"/>
<stop offset="1" stop-color="#729BFA"/>
</linearGradient>
</defs>
</svg>
